<?xml version="1.0" encoding="UTF-8"?>
<!DOCTYPE svg PUBLIC "-//W3C//DTD SVG 1.1//EN" "http://www.w3.org/Graphics/SVG/1.1/DTD/svg11.dtd">
<svg xmlns="http://www.w3.org/2000/svg" style="background: #ffffff; background-color: light-dark(#ffffff, var(--ge-dark-color, #121212)); color-scheme: light dark;" xmlns:xlink="http://www.w3.org/1999/xlink" version="1.1" width="1068px" height="811px" viewBox="0 0 1068 811"><defs/><rect fill="#ffffff" width="100%" height="100%" x="0" y="0" style="fill: light-dark(#ffffff, var(--ge-dark-color, #121212));"/><g><g data-cell-id="0"><g data-cell-id="1"><g data-cell-id="V7NBQSqzSmJMBdWkjvqv-7"><g transform="translate(0.5,0.5)"><rect x="188.5" y="526" width="5" height="110" fill="#808080" stroke="none" pointer-events="all" style="fill: rgb(128, 128, 128);"/></g></g><g data-cell-id="V7NBQSqzSmJMBdWkjvqv-5"><g><rect x="21" y="21" width="1024" height="768" fill="none" stroke="#000000" stroke-width="3" pointer-events="all" style="stroke: light-dark(rgb(0, 0, 0), rgb(255, 255, 255));"/></g></g><g data-cell-id="V7NBQSqzSmJMBdWkjvqv-1"><g transform="translate(0.5,0.5)"><rect x="311" y="596" width="94.03" height="90" fill="none" stroke="none" pointer-events="all"/><path d="M 327.12 668.54 L 311 686 L 391.6 686 L 375.48 668.54" fill="#ffffff" stroke="#000000" stroke-miterlimit="10" pointer-events="all" style="fill: light-dark(#ffffff, var(--ge-dark-color, #121212)); stroke: light-dark(rgb(0, 0, 0), rgb(255, 255, 255));"/><path d="M 311.81 629.58 C 315.07 610.28 331.73 596.12 351.3 596 L 405.03 596 L 405.03 622.87 L 389.52 622.87 C 394.64 637.23 391.21 653.26 380.66 664.28 C 370.11 675.29 354.24 679.41 339.67 674.91 C 325.09 670.41 314.31 658.06 311.81 643.01" fill="#ffffff" stroke="#000000" stroke-miterlimit="10" pointer-events="all" style="fill: light-dark(#ffffff, var(--ge-dark-color, #121212)); stroke: light-dark(rgb(0, 0, 0), rgb(255, 255, 255));"/><path d="M 339.75 629.58 C 342.79 624.32 348.98 621.75 354.86 623.32 C 360.73 624.9 364.81 630.22 364.81 636.3 C 364.81 642.38 360.73 647.7 354.86 649.27 C 348.98 650.85 342.79 648.28 339.75 643.01" fill="none" stroke="#000000" stroke-miterlimit="10" pointer-events="all" style="stroke: light-dark(rgb(0, 0, 0), rgb(255, 255, 255));"/></g></g><g data-cell-id="V7NBQSqzSmJMBdWkjvqv-4"><g transform="translate(0.5,0.5)"><rect x="91" y="246" width="200" height="290" fill="none" stroke="none" pointer-events="all"/><path d="M 91 466.66 L 91 304.85 C 147.94 245.99 234.06 245.99 291 304.85 L 291 466.66 L 191 536 Z M 91 304.85 L 291 304.85 M 91 466.66 L 291 466.66" fill="#ffffff" stroke="#000000" stroke-miterlimit="10" pointer-events="all" style="fill: light-dark(#ffffff, var(--ge-dark-color, #121212)); stroke: light-dark(rgb(0, 0, 0), rgb(255, 255, 255));"/></g></g><g data-cell-id="V7NBQSqzSmJMBdWkjvqv-8"><g transform="translate(0.5,0.5)"><rect x="266" y="556" width="5" height="160" fill="#808080" stroke="none" transform="rotate(90,268.5,636)" pointer-events="all" style="fill: rgb(128, 128, 128);"/></g></g><g data-cell-id="V7NBQSqzSmJMBdWkjvqv-10"><g transform="translate(0.5,0.5)"><path d="M 188.5 136 L 193.5 136 L 193.5 242.69 L 195.55 242.69 L 191 260 L 186.45 242.69 L 188.5 242.69 Z" fill="#808080" stroke="none" pointer-events="all" style="fill: rgb(128, 128, 128);"/></g></g><g data-cell-id="V7NBQSqzSmJMBdWkjvqv-11"><g transform="translate(0.5,0.5)"><rect x="494.5" y="517.5" width="5" height="183" fill="#808080" stroke="none" transform="rotate(90,497,609)" pointer-events="all" style="fill: rgb(128, 128, 128);"/></g></g><g data-cell-id="V7NBQSqzSmJMBdWkjvqv-12"><g transform="translate(0.5,0.5)"><rect x="815.65" y="531.09" width="5" height="155.8" fill="#808080" stroke="none" transform="rotate(90,818.15,608.99)" pointer-events="all" style="fill: rgb(128, 128, 128);"/></g></g><g data-cell-id="V7NBQSqzSmJMBdWkjvqv-3"><g transform="translate(0.5,0.5)"><rect x="589" y="589" width="152" height="40" fill="none" stroke="none" pointer-events="all"/><path d="M 589 629 L 614.33 629 L 614.33 621 L 715.67 621 L 715.67 629 L 741 629 L 741 589 L 715.67 589 L 715.67 597 L 614.33 597 L 614.33 589 L 589 589 Z M 614.33 597 L 614.33 621 M 715.67 597 L 715.67 621" fill="#ffffff" stroke="#000000" stroke-miterlimit="10" pointer-events="all" style="fill: light-dark(#ffffff, var(--ge-dark-color, #121212)); stroke: light-dark(rgb(0, 0, 0), rgb(255, 255, 255));"/></g></g><g data-cell-id="V7NBQSqzSmJMBdWkjvqv-13"><g transform="translate(0.5,0.5)"><rect x="891" y="136" width="5" height="475" fill="#808080" stroke="none" pointer-events="all" style="fill: rgb(128, 128, 128);"/></g></g><g data-cell-id="V7NBQSqzSmJMBdWkjvqv-14"><g transform="translate(0.5,0.5)"><rect x="191" y="136" width="705" height="5" fill="#808080" stroke="none" pointer-events="all" style="fill: rgb(128, 128, 128);"/></g></g></g></g></g></svg>